# xmcd
#
# Track frame offsets:
#	150
#	21587
#	39665
#	58215
#	72400
#	93752
#	108742
#	120820
#	138635
#	153487
#	164392
#	177287
#	194540
#	214680
#	228297
#	245155
#	268025
#	288320
#	309790
#	328217
#
# Disc length: 4633 seconds
#
# Revision: 5
# Processed by: cddbd v1.5.1PL2 Copyright (c) Steve Scherf et al.
# Submitted via: EasyCDDAExtractor 9.1.0.1
#
DISCID=2c121714
DTITLE=Various Artist - Casa de Samba-Millennium
DYEAR=2000
DGENRE=Samba
TTITLE0=Simone and Martinho da Vila - Ex-Amor
TTITLE1=Zeca Pagodinho and Caetano Veloso - Com que roupa
TTITLE2=Sandra de Sá and Jorge Aragão - Enredo do meu samba
TTITLE3=Elza Soares and Ney MatoGrosso - Tem querebolar
TTITLE4=Jorge Benjor and Ivete Sangalo - Por causa de voce menina
TTITLE5=Alcione and João Nogueira - Mineira
TTITLE6=Zizi Possi and Paulinho da Viola - So o tempo
TTITLE7=Fundo de Quintal and Gabriel o Pensador - Ah! que saudades de Amelia
TTITLE8=Noite Ilustrada and Marcia Freire - Volta por cima
TTITLE9=Robertyo Silva and Fernanda Abreu - Escurinho
TTITLE10=Alcione and Emilio Santiago - Flor de Lis
TTITLE11=Zeca Pagodinho and Almir Guineto - Insensato destino
TTITLE12=Luíz Melodia and Cassia Eller - Juventude transviada
TTITLE13=Terra Sanba and Alcione - O samba da minha terra
TTITLE14=Fundo de Quintal and Alcione - Leva meu samba
TTITLE15=Zizi Possi and Miltinho - O amor e a rosa  Mulher de trinta  e Palhacad
TTITLE15=a
TTITLE16=Jair Rodrigues and Baby Brasil - Foi um rio q passou em minha vida
TTITLE17=Zelia Duncan and A Vela Guarda da Portela - Quantas lagrimas
TTITLE18=Beth Carvalho and Nana Caymmi - As rosas nao falam
TTITLE19=Demonios da Garoa and Ivete Sangalo - Trem das onze
EXTD=YEAR: 2000
EXTT0=
EXTT1=
EXTT2=
EXTT3=
EXTT4=
EXTT5=
EXTT6=
EXTT7=
EXTT8=
EXTT9=
EXTT10=
EXTT11=
EXTT12=
EXTT13=
EXTT14=
EXTT15=
EXTT16=
EXTT17=
EXTT18=
EXTT19=
PLAYORDER=
